# MagicaVoxel @ Ephtracy

# group
o 

# material
mtllib Ground (Dock Platform Corner).mtl
usemtl palette

# normals
vn -1 0 0
vn 1 0 0
vn 0 0 1
vn 0 0 -1
vn 0 -1 0
vn 0 1 0

# texcoords
vt 0.00195313 0.5
vt 0.994141 0.5

# verts
v -5.3 1 5.5
v -5.3 1 -4.3
v -5.3 1.2 5.5
v -5.3 1.2 5.3
v -5.3 1.2 5.1
v -5.3 1.2 4.9
v -5.3 1.2 4.7
v -5.3 1.2 4.5
v -5.3 1.2 4.3
v -5.3 1.2 4.1
v -5.3 1.2 3.9
v -5.3 1.2 3.7
v -5.3 1.2 3.5
v -5.3 1.2 3.3
v -5.3 1.2 3.1
v -5.3 1.2 2.9
v -5.3 1.2 2.7
v -5.3 1.2 2.5
v -5.3 1.2 2.3
v -5.3 1.2 2.1
v -5.3 1.2 1.9
v -5.3 1.2 1.7
v -5.3 1.2 1.5
v -5.3 1.2 1.3
v -5.3 1.2 1.1
v -5.3 1.2 0.9
v -5.3 1.2 0.7
v -5.3 1.2 0.5
v -5.3 1.2 0.3
v -5.3 1.2 0.0999999
v -5.3 1.2 -0.1
v -5.3 1.2 -0.3
v -5.3 1.2 -0.5
v -5.3 1.2 -0.7
v -5.3 1.2 -0.9
v -5.3 1.2 -1.1
v -5.3 1.2 -1.3
v -5.3 1.2 -1.5
v -5.3 1.2 -1.7
v -5.3 1.2 -1.9
v -5.3 1.2 -2.1
v -5.3 1.2 -2.3
v -5.3 1.2 -2.5
v -5.3 1.2 -2.7
v -5.3 1.2 -2.9
v -5.3 1.2 -3.1
v -5.3 1.2 -3.3
v -5.3 1.2 -3.5
v -5.3 1.2 -3.7
v -5.3 1.2 -3.9
v -5.3 1.2 -4.1
v -5.3 1.2 -4.3
v -5.3 1.3 5.5
v -5.3 1.3 5.3
v -5.3 1.3 5.1
v -5.3 1.3 4.9
v -5.3 1.3 4.7
v -5.3 1.3 4.5
v -5.3 1.3 4.3
v -5.3 1.3 4.1
v -5.3 1.3 3.9
v -5.3 1.3 3.7
v -5.3 1.3 3.5
v -5.3 1.3 3.3
v -5.3 1.3 3.1
v -5.3 1.3 2.9
v -5.3 1.3 2.7
v -5.3 1.3 2.5
v -5.3 1.3 2.3
v -5.3 1.3 2.1
v -5.3 1.3 1.9
v -5.3 1.3 1.7
v -5.3 1.3 1.5
v -5.3 1.3 1.3
v -5.3 1.3 1.1
v -5.3 1.3 0.9
v -5.3 1.3 0.7
v -5.3 1.3 0.5
v -5.3 1.3 0.3
v -5.3 1.3 0.0999999
v -5.3 1.3 -0.1
v -5.3 1.3 -0.3
v -5.3 1.3 -0.5
v -5.3 1.3 -0.7
v -5.3 1.3 -0.9
v -5.3 1.3 -1.1
v -5.3 1.3 -1.3
v -5.3 1.3 -1.5
v -5.3 1.3 -1.7
v -5.3 1.3 -1.9
v -5.3 1.3 -2.1
v -5.3 1.3 -2.3
v -5.3 1.3 -2.5
v -5.3 1.3 -2.7
v -5.3 1.3 -2.9
v -5.3 1.3 -3.1
v -5.3 1.3 -3.3
v -5.3 1.3 -3.5
v -5.3 1.3 -3.7
v -5.3 1.3 -3.9
v -5.3 1.3 -4.1
v -5.3 1.3 -4.3
v -4.9 0 5.1
v -4.9 0 -4.3
v -4.9 1 5.1
v -4.9 1 -4.3
v 4.5 0 5.1
v 4.5 0 -4.3
v 4.5 1 5.5
v 4.5 1 5.1
v 4.5 1.2 5.5
v 4.5 1.2 5.3
v 4.5 1.3 5.5
v 4.5 1.3 5.3
v 4.5 1.3 -4.3
v -5.3 1 5.5
v -5.3 1.2 5.5
v -5.3 1.3 5.5
v -5.1 1.2 5.5
v -5.1 1.3 5.5
v -4.9 1.2 5.5
v -4.9 1.3 5.5
v -4.7 1.2 5.5
v -4.7 1.3 5.5
v -4.5 1.2 5.5
v -4.5 1.3 5.5
v -4.3 1.2 5.5
v -4.3 1.3 5.5
v -4.1 1.2 5.5
v -4.1 1.3 5.5
v -3.9 1.2 5.5
v -3.9 1.3 5.5
v -3.7 1.2 5.5
v -3.7 1.3 5.5
v -3.5 1.2 5.5
v -3.5 1.3 5.5
v -3.3 1.2 5.5
v -3.3 1.3 5.5
v -3.1 1.2 5.5
v -3.1 1.3 5.5
v -2.9 1.2 5.5
v -2.9 1.3 5.5
v -2.7 1.2 5.5
v -2.7 1.3 5.5
v -2.5 1.2 5.5
v -2.5 1.3 5.5
v -2.3 1.2 5.5
v -2.3 1.3 5.5
v -2.1 1.2 5.5
v -2.1 1.3 5.5
v -1.9 1.2 5.5
v -1.9 1.3 5.5
v -1.7 1.2 5.5
v -1.7 1.3 5.5
v -1.5 1.2 5.5
v -1.5 1.3 5.5
v -1.3 1.2 5.5
v -1.3 1.3 5.5
v -1.1 1.2 5.5
v -1.1 1.3 5.5
v -0.9 1.2 5.5
v -0.9 1.3 5.5
v -0.7 1.2 5.5
v -0.7 1.3 5.5
v -0.5 1.2 5.5
v -0.5 1.3 5.5
v -0.3 1.2 5.5
v -0.3 1.3 5.5
v -0.0999999 1.2 5.5
v -0.0999999 1.3 5.5
v 0.0999999 1.2 5.5
v 0.0999999 1.3 5.5
v 0.3 1.2 5.5
v 0.3 1.3 5.5
v 0.5 1.2 5.5
v 0.5 1.3 5.5
v 0.7 1.2 5.5
v 0.7 1.3 5.5
v 0.9 1.2 5.5
v 0.9 1.3 5.5
v 1.1 1.2 5.5
v 1.1 1.3 5.5
v 1.3 1.2 5.5
v 1.3 1.3 5.5
v 1.5 1.2 5.5
v 1.5 1.3 5.5
v 1.7 1.2 5.5
v 1.7 1.3 5.5
v 1.9 1.2 5.5
v 1.9 1.3 5.5
v 2.1 1.2 5.5
v 2.1 1.3 5.5
v 2.3 1.2 5.5
v 2.3 1.3 5.5
v 2.5 1.2 5.5
v 2.5 1.3 5.5
v 2.7 1.2 5.5
v 2.7 1.3 5.5
v 2.9 1.2 5.5
v 2.9 1.3 5.5
v 3.1 1.2 5.5
v 3.1 1.3 5.5
v 3.3 1.2 5.5
v 3.3 1.3 5.5
v 3.5 1.2 5.5
v 3.5 1.3 5.5
v 3.7 1.2 5.5
v 3.7 1.3 5.5
v 3.9 1.2 5.5
v 3.9 1.3 5.5
v 4.1 1.2 5.5
v 4.1 1.3 5.5
v 4.3 1.2 5.5
v 4.3 1.3 5.5
v 4.5 1 5.5
v 4.5 1.2 5.5
v 4.5 1.3 5.5
v -4.9 0 5.1
v -4.9 1 5.1
v 4.5 0 5.1
v 4.5 1 5.1
v -5.3 1 -4.3
v -5.3 1.2 -4.3
v -5.3 1.3 -4.3
v -5.1 1.2 -4.3
v -5.1 1.3 -4.3
v -4.9 0 -4.3
v -4.9 1 -4.3
v 4.5 0 -4.3
v 4.5 1.3 -4.3
v -4.9 0 5.1
v 4.5 0 5.1
v -4.9 0 -4.3
v 4.5 0 -4.3
v -5.3 1 5.5
v 4.5 1 5.5
v -4.9 1 5.1
v 4.5 1 5.1
v -5.3 1 -4.3
v -4.9 1 -4.3
v -5.3 1.3 5.5
v -5.1 1.3 5.5
v -4.9 1.3 5.5
v -4.7 1.3 5.5
v -4.5 1.3 5.5
v -4.3 1.3 5.5
v -4.1 1.3 5.5
v -3.9 1.3 5.5
v -3.7 1.3 5.5
v -3.5 1.3 5.5
v -3.3 1.3 5.5
v -3.1 1.3 5.5
v -2.9 1.3 5.5
v -2.7 1.3 5.5
v -2.5 1.3 5.5
v -2.3 1.3 5.5
v -2.1 1.3 5.5
v -1.9 1.3 5.5
v -1.7 1.3 5.5
v -1.5 1.3 5.5
v -1.3 1.3 5.5
v -1.1 1.3 5.5
v -0.9 1.3 5.5
v -0.7 1.3 5.5
v -0.5 1.3 5.5
v -0.3 1.3 5.5
v -0.0999999 1.3 5.5
v 0.0999999 1.3 5.5
v 0.3 1.3 5.5
v 0.5 1.3 5.5
v 0.7 1.3 5.5
v 0.9 1.3 5.5
v 1.1 1.3 5.5
v 1.3 1.3 5.5
v 1.5 1.3 5.5
v 1.7 1.3 5.5
v 1.9 1.3 5.5
v 2.1 1.3 5.5
v 2.3 1.3 5.5
v 2.5 1.3 5.5
v 2.7 1.3 5.5
v 2.9 1.3 5.5
v 3.1 1.3 5.5
v 3.3 1.3 5.5
v 3.5 1.3 5.5
v 3.7 1.3 5.5
v 3.9 1.3 5.5
v 4.1 1.3 5.5
v 4.3 1.3 5.5
v 4.5 1.3 5.5
v -5.3 1.3 5.3
v -5.1 1.3 5.3
v -4.9 1.3 5.3
v -4.7 1.3 5.3
v -4.5 1.3 5.3
v -4.3 1.3 5.3
v -4.1 1.3 5.3
v -3.9 1.3 5.3
v -3.7 1.3 5.3
v -3.5 1.3 5.3
v -3.3 1.3 5.3
v -3.1 1.3 5.3
v -2.9 1.3 5.3
v -2.7 1.3 5.3
v -2.5 1.3 5.3
v -2.3 1.3 5.3
v -2.1 1.3 5.3
v -1.9 1.3 5.3
v -1.7 1.3 5.3
v -1.5 1.3 5.3
v -1.3 1.3 5.3
v -1.1 1.3 5.3
v -0.9 1.3 5.3
v -0.7 1.3 5.3
v -0.5 1.3 5.3
v -0.3 1.3 5.3
v -0.0999999 1.3 5.3
v 0.0999999 1.3 5.3
v 0.3 1.3 5.3
v 0.5 1.3 5.3
v 0.7 1.3 5.3
v 0.9 1.3 5.3
v 1.1 1.3 5.3
v 1.3 1.3 5.3
v 1.5 1.3 5.3
v 1.7 1.3 5.3
v 1.9 1.3 5.3
v 2.1 1.3 5.3
v 2.3 1.3 5.3
v 2.5 1.3 5.3
v 2.7 1.3 5.3
v 2.9 1.3 5.3
v 3.1 1.3 5.3
v 3.3 1.3 5.3
v 3.5 1.3 5.3
v 3.7 1.3 5.3
v 3.9 1.3 5.3
v 4.1 1.3 5.3
v 4.3 1.3 5.3
v 4.5 1.3 5.3
v -5.3 1.3 5.1
v -5.1 1.3 5.1
v -5.3 1.3 4.9
v -5.1 1.3 4.9
v -5.3 1.3 4.7
v -5.1 1.3 4.7
v -5.3 1.3 4.5
v -5.1 1.3 4.5
v -5.3 1.3 4.3
v -5.1 1.3 4.3
v -5.3 1.3 4.1
v -5.1 1.3 4.1
v -5.3 1.3 3.9
v -5.1 1.3 3.9
v -5.3 1.3 3.7
v -5.1 1.3 3.7
v -5.3 1.3 3.5
v -5.1 1.3 3.5
v -5.3 1.3 3.3
v -5.1 1.3 3.3
v -5.3 1.3 3.1
v -5.1 1.3 3.1
v -5.3 1.3 2.9
v -5.1 1.3 2.9
v -5.3 1.3 2.7
v -5.1 1.3 2.7
v -5.3 1.3 2.5
v -5.1 1.3 2.5
v -5.3 1.3 2.3
v -5.1 1.3 2.3
v -5.3 1.3 2.1
v -5.1 1.3 2.1
v -5.3 1.3 1.9
v -5.1 1.3 1.9
v -5.3 1.3 1.7
v -5.1 1.3 1.7
v -5.3 1.3 1.5
v -5.1 1.3 1.5
v -5.3 1.3 1.3
v -5.1 1.3 1.3
v -5.3 1.3 1.1
v -5.1 1.3 1.1
v -5.3 1.3 0.9
v -5.1 1.3 0.9
v -5.3 1.3 0.7
v -5.1 1.3 0.7
v -5.3 1.3 0.5
v -5.1 1.3 0.5
v -5.3 1.3 0.3
v -5.1 1.3 0.3
v -5.3 1.3 0.0999999
v -5.1 1.3 0.0999999
v -5.3 1.3 -0.1
v -5.1 1.3 -0.1
v -5.3 1.3 -0.3
v -5.1 1.3 -0.3
v -5.3 1.3 -0.5
v -5.1 1.3 -0.5
v -5.3 1.3 -0.7
v -5.1 1.3 -0.7
v -5.3 1.3 -0.9
v -5.1 1.3 -0.9
v -5.3 1.3 -1.1
v -5.1 1.3 -1.1
v -5.3 1.3 -1.3
v -5.1 1.3 -1.3
v -5.3 1.3 -1.5
v -5.1 1.3 -1.5
v -5.3 1.3 -1.7
v -5.1 1.3 -1.7
v -5.3 1.3 -1.9
v -5.1 1.3 -1.9
v -5.3 1.3 -2.1
v -5.1 1.3 -2.1
v -5.3 1.3 -2.3
v -5.1 1.3 -2.3
v -5.3 1.3 -2.5
v -5.1 1.3 -2.5
v -5.3 1.3 -2.7
v -5.1 1.3 -2.7
v -5.3 1.3 -2.9
v -5.1 1.3 -2.9
v -5.3 1.3 -3.1
v -5.1 1.3 -3.1
v -5.3 1.3 -3.3
v -5.1 1.3 -3.3
v -5.3 1.3 -3.5
v -5.1 1.3 -3.5
v -5.3 1.3 -3.7
v -5.1 1.3 -3.7
v -5.3 1.3 -3.9
v -5.1 1.3 -3.9
v -5.3 1.3 -4.1
v -5.1 1.3 -4.1
v -5.3 1.3 -4.3
v -5.1 1.3 -4.3
v 4.5 1.3 -4.3

# faces
f 3/2/1 2/2/1 1/2/1
f 4/2/1 2/2/1 3/2/1
f 5/2/1 2/2/1 4/2/1
f 6/2/1 2/2/1 5/2/1
f 7/2/1 2/2/1 6/2/1
f 8/2/1 2/2/1 7/2/1
f 9/2/1 2/2/1 8/2/1
f 10/2/1 2/2/1 9/2/1
f 11/2/1 2/2/1 10/2/1
f 12/2/1 2/2/1 11/2/1
f 13/2/1 2/2/1 12/2/1
f 14/2/1 2/2/1 13/2/1
f 15/2/1 2/2/1 14/2/1
f 16/2/1 2/2/1 15/2/1
f 17/2/1 2/2/1 16/2/1
f 18/2/1 2/2/1 17/2/1
f 19/2/1 2/2/1 18/2/1
f 20/2/1 2/2/1 19/2/1
f 21/2/1 2/2/1 20/2/1
f 22/2/1 2/2/1 21/2/1
f 23/2/1 2/2/1 22/2/1
f 24/2/1 2/2/1 23/2/1
f 25/2/1 2/2/1 24/2/1
f 26/2/1 2/2/1 25/2/1
f 27/2/1 2/2/1 26/2/1
f 28/2/1 2/2/1 27/2/1
f 29/2/1 2/2/1 28/2/1
f 30/2/1 2/2/1 29/2/1
f 31/2/1 2/2/1 30/2/1
f 32/2/1 2/2/1 31/2/1
f 33/2/1 2/2/1 32/2/1
f 34/2/1 2/2/1 33/2/1
f 35/2/1 2/2/1 34/2/1
f 36/2/1 2/2/1 35/2/1
f 37/2/1 2/2/1 36/2/1
f 38/2/1 2/2/1 37/2/1
f 39/2/1 2/2/1 38/2/1
f 40/2/1 2/2/1 39/2/1
f 41/2/1 2/2/1 40/2/1
f 42/2/1 2/2/1 41/2/1
f 43/2/1 2/2/1 42/2/1
f 44/2/1 2/2/1 43/2/1
f 45/2/1 2/2/1 44/2/1
f 46/2/1 2/2/1 45/2/1
f 47/2/1 2/2/1 46/2/1
f 48/2/1 2/2/1 47/2/1
f 49/2/1 2/2/1 48/2/1
f 50/2/1 2/2/1 49/2/1
f 51/2/1 2/2/1 50/2/1
f 52/2/1 2/2/1 51/2/1
f 53/1/1 4/1/1 3/1/1
f 54/2/1 5/2/1 4/2/1
f 54/1/1 4/1/1 53/1/1
f 55/1/1 6/1/1 5/1/1
f 55/2/1 5/2/1 54/2/1
f 56/2/1 7/2/1 6/2/1
f 56/1/1 6/1/1 55/1/1
f 57/1/1 8/1/1 7/1/1
f 57/2/1 7/2/1 56/2/1
f 58/2/1 9/2/1 8/2/1
f 58/1/1 8/1/1 57/1/1
f 59/1/1 10/1/1 9/1/1
f 59/2/1 9/2/1 58/2/1
f 60/2/1 11/2/1 10/2/1
f 60/1/1 10/1/1 59/1/1
f 61/1/1 12/1/1 11/1/1
f 61/2/1 11/2/1 60/2/1
f 62/2/1 13/2/1 12/2/1
f 62/1/1 12/1/1 61/1/1
f 63/1/1 14/1/1 13/1/1
f 63/2/1 13/2/1 62/2/1
f 64/2/1 15/2/1 14/2/1
f 64/1/1 14/1/1 63/1/1
f 65/1/1 16/1/1 15/1/1
f 65/2/1 15/2/1 64/2/1
f 66/2/1 17/2/1 16/2/1
f 66/1/1 16/1/1 65/1/1
f 67/1/1 18/1/1 17/1/1
f 67/2/1 17/2/1 66/2/1
f 68/2/1 19/2/1 18/2/1
f 68/1/1 18/1/1 67/1/1
f 69/1/1 20/1/1 19/1/1
f 69/2/1 19/2/1 68/2/1
f 70/2/1 21/2/1 20/2/1
f 70/1/1 20/1/1 69/1/1
f 71/1/1 22/1/1 21/1/1
f 71/2/1 21/2/1 70/2/1
f 72/2/1 23/2/1 22/2/1
f 72/1/1 22/1/1 71/1/1
f 73/1/1 24/1/1 23/1/1
f 73/2/1 23/2/1 72/2/1
f 74/2/1 25/2/1 24/2/1
f 74/1/1 24/1/1 73/1/1
f 75/1/1 26/1/1 25/1/1
f 75/2/1 25/2/1 74/2/1
f 76/2/1 27/2/1 26/2/1
f 76/1/1 26/1/1 75/1/1
f 77/1/1 28/1/1 27/1/1
f 77/2/1 27/2/1 76/2/1
f 78/2/1 29/2/1 28/2/1
f 78/1/1 28/1/1 77/1/1
f 79/1/1 30/1/1 29/1/1
f 79/2/1 29/2/1 78/2/1
f 80/2/1 31/2/1 30/2/1
f 80/1/1 30/1/1 79/1/1
f 81/1/1 32/1/1 31/1/1
f 81/2/1 31/2/1 80/2/1
f 82/2/1 33/2/1 32/2/1
f 82/1/1 32/1/1 81/1/1
f 83/1/1 34/1/1 33/1/1
f 83/2/1 33/2/1 82/2/1
f 84/2/1 35/2/1 34/2/1
f 84/1/1 34/1/1 83/1/1
f 85/1/1 36/1/1 35/1/1
f 85/2/1 35/2/1 84/2/1
f 86/2/1 37/2/1 36/2/1
f 86/1/1 36/1/1 85/1/1
f 87/1/1 38/1/1 37/1/1
f 87/2/1 37/2/1 86/2/1
f 88/2/1 39/2/1 38/2/1
f 88/1/1 38/1/1 87/1/1
f 89/1/1 40/1/1 39/1/1
f 89/2/1 39/2/1 88/2/1
f 90/2/1 41/2/1 40/2/1
f 90/1/1 40/1/1 89/1/1
f 91/1/1 42/1/1 41/1/1
f 91/2/1 41/2/1 90/2/1
f 92/2/1 43/2/1 42/2/1
f 92/1/1 42/1/1 91/1/1
f 93/1/1 44/1/1 43/1/1
f 93/2/1 43/2/1 92/2/1
f 94/2/1 45/2/1 44/2/1
f 94/1/1 44/1/1 93/1/1
f 95/1/1 46/1/1 45/1/1
f 95/2/1 45/2/1 94/2/1
f 96/2/1 47/2/1 46/2/1
f 96/1/1 46/1/1 95/1/1
f 97/1/1 48/1/1 47/1/1
f 97/2/1 47/2/1 96/2/1
f 98/2/1 49/2/1 48/2/1
f 98/1/1 48/1/1 97/1/1
f 99/1/1 50/1/1 49/1/1
f 99/2/1 49/2/1 98/2/1
f 100/2/1 51/2/1 50/2/1
f 100/1/1 50/1/1 99/1/1
f 101/1/1 52/1/1 51/1/1
f 101/2/1 51/2/1 100/2/1
f 102/1/1 52/1/1 101/1/1
f 105/2/1 104/2/1 103/2/1
f 106/2/1 104/2/1 105/2/1
f 107/2/2 108/2/2 110/2/2
f 109/2/2 110/2/2 111/2/2
f 111/2/2 110/2/2 112/2/2
f 111/1/2 112/1/2 113/1/2
f 112/2/2 110/2/2 114/2/2
f 113/1/2 112/1/2 114/1/2
f 110/2/2 108/2/2 115/2/2
f 114/2/2 110/2/2 115/2/2
f 119/2/3 117/2/3 116/2/3
f 119/1/3 118/1/3 117/1/3
f 120/1/3 118/1/3 119/1/3
f 121/2/3 119/2/3 116/2/3
f 121/2/3 120/2/3 119/2/3
f 122/2/3 120/2/3 121/2/3
f 123/2/3 121/2/3 116/2/3
f 123/1/3 122/1/3 121/1/3
f 124/1/3 122/1/3 123/1/3
f 125/2/3 123/2/3 116/2/3
f 125/2/3 124/2/3 123/2/3
f 126/2/3 124/2/3 125/2/3
f 127/2/3 125/2/3 116/2/3
f 127/1/3 126/1/3 125/1/3
f 128/1/3 126/1/3 127/1/3
f 129/2/3 127/2/3 116/2/3
f 129/2/3 128/2/3 127/2/3
f 130/2/3 128/2/3 129/2/3
f 131/2/3 129/2/3 116/2/3
f 131/1/3 130/1/3 129/1/3
f 132/1/3 130/1/3 131/1/3
f 133/2/3 131/2/3 116/2/3
f 133/2/3 132/2/3 131/2/3
f 134/2/3 132/2/3 133/2/3
f 135/2/3 133/2/3 116/2/3
f 135/1/3 134/1/3 133/1/3
f 136/1/3 134/1/3 135/1/3
f 137/2/3 135/2/3 116/2/3
f 137/2/3 136/2/3 135/2/3
f 138/2/3 136/2/3 137/2/3
f 139/2/3 137/2/3 116/2/3
f 139/1/3 138/1/3 137/1/3
f 140/1/3 138/1/3 139/1/3
f 141/2/3 139/2/3 116/2/3
f 141/2/3 140/2/3 139/2/3
f 142/2/3 140/2/3 141/2/3
f 143/2/3 141/2/3 116/2/3
f 143/1/3 142/1/3 141/1/3
f 144/1/3 142/1/3 143/1/3
f 145/2/3 143/2/3 116/2/3
f 145/2/3 144/2/3 143/2/3
f 146/2/3 144/2/3 145/2/3
f 147/2/3 145/2/3 116/2/3
f 147/1/3 146/1/3 145/1/3
f 148/1/3 146/1/3 147/1/3
f 149/2/3 147/2/3 116/2/3
f 149/2/3 148/2/3 147/2/3
f 150/2/3 148/2/3 149/2/3
f 151/2/3 149/2/3 116/2/3
f 151/1/3 150/1/3 149/1/3
f 152/1/3 150/1/3 151/1/3
f 153/2/3 151/2/3 116/2/3
f 153/2/3 152/2/3 151/2/3
f 154/2/3 152/2/3 153/2/3
f 155/2/3 153/2/3 116/2/3
f 155/1/3 154/1/3 153/1/3
f 156/1/3 154/1/3 155/1/3
f 157/2/3 155/2/3 116/2/3
f 157/2/3 156/2/3 155/2/3
f 158/2/3 156/2/3 157/2/3
f 159/2/3 157/2/3 116/2/3
f 159/1/3 158/1/3 157/1/3
f 160/1/3 158/1/3 159/1/3
f 161/2/3 159/2/3 116/2/3
f 161/2/3 160/2/3 159/2/3
f 162/2/3 160/2/3 161/2/3
f 163/2/3 161/2/3 116/2/3
f 163/1/3 162/1/3 161/1/3
f 164/1/3 162/1/3 163/1/3
f 165/2/3 163/2/3 116/2/3
f 165/2/3 164/2/3 163/2/3
f 166/2/3 164/2/3 165/2/3
f 167/2/3 165/2/3 116/2/3
f 167/1/3 166/1/3 165/1/3
f 168/1/3 166/1/3 167/1/3
f 169/2/3 167/2/3 116/2/3
f 169/2/3 168/2/3 167/2/3
f 170/2/3 168/2/3 169/2/3
f 171/2/3 169/2/3 116/2/3
f 171/1/3 170/1/3 169/1/3
f 172/1/3 170/1/3 171/1/3
f 173/2/3 171/2/3 116/2/3
f 173/2/3 172/2/3 171/2/3
f 174/2/3 172/2/3 173/2/3
f 175/2/3 173/2/3 116/2/3
f 175/1/3 174/1/3 173/1/3
f 176/1/3 174/1/3 175/1/3
f 177/2/3 175/2/3 116/2/3
f 177/2/3 176/2/3 175/2/3
f 178/2/3 176/2/3 177/2/3
f 179/2/3 177/2/3 116/2/3
f 179/1/3 178/1/3 177/1/3
f 180/1/3 178/1/3 179/1/3
f 181/2/3 179/2/3 116/2/3
f 181/2/3 180/2/3 179/2/3
f 182/2/3 180/2/3 181/2/3
f 183/2/3 181/2/3 116/2/3
f 183/1/3 182/1/3 181/1/3
f 184/1/3 182/1/3 183/1/3
f 185/2/3 183/2/3 116/2/3
f 185/2/3 184/2/3 183/2/3
f 186/2/3 184/2/3 185/2/3
f 187/2/3 185/2/3 116/2/3
f 187/1/3 186/1/3 185/1/3
f 188/1/3 186/1/3 187/1/3
f 189/2/3 187/2/3 116/2/3
f 189/2/3 188/2/3 187/2/3
f 190/2/3 188/2/3 189/2/3
f 191/2/3 189/2/3 116/2/3
f 191/1/3 190/1/3 189/1/3
f 192/1/3 190/1/3 191/1/3
f 193/2/3 191/2/3 116/2/3
f 193/2/3 192/2/3 191/2/3
f 194/2/3 192/2/3 193/2/3
f 195/2/3 193/2/3 116/2/3
f 195/1/3 194/1/3 193/1/3
f 196/1/3 194/1/3 195/1/3
f 197/2/3 195/2/3 116/2/3
f 197/2/3 196/2/3 195/2/3
f 198/2/3 196/2/3 197/2/3
f 199/2/3 197/2/3 116/2/3
f 199/1/3 198/1/3 197/1/3
f 200/1/3 198/1/3 199/1/3
f 201/2/3 199/2/3 116/2/3
f 201/2/3 200/2/3 199/2/3
f 202/2/3 200/2/3 201/2/3
f 203/2/3 201/2/3 116/2/3
f 203/1/3 202/1/3 201/1/3
f 204/1/3 202/1/3 203/1/3
f 205/2/3 203/2/3 116/2/3
f 205/2/3 204/2/3 203/2/3
f 206/2/3 204/2/3 205/2/3
f 207/2/3 205/2/3 116/2/3
f 207/1/3 206/1/3 205/1/3
f 208/1/3 206/1/3 207/1/3
f 209/2/3 207/2/3 116/2/3
f 209/2/3 208/2/3 207/2/3
f 210/2/3 208/2/3 209/2/3
f 211/2/3 209/2/3 116/2/3
f 211/1/3 210/1/3 209/1/3
f 212/1/3 210/1/3 211/1/3
f 213/2/3 211/2/3 116/2/3
f 213/2/3 212/2/3 211/2/3
f 214/2/3 212/2/3 213/2/3
f 215/2/3 213/2/3 116/2/3
f 216/1/3 214/1/3 213/1/3
f 216/2/3 213/2/3 215/2/3
f 217/1/3 214/1/3 216/1/3
f 220/2/3 219/2/3 218/2/3
f 221/2/3 219/2/3 220/2/3
f 222/2/4 223/2/4 225/2/4
f 223/1/4 224/1/4 225/1/4
f 225/1/4 224/1/4 226/1/4
f 222/2/4 225/2/4 228/2/4
f 225/2/4 226/2/4 228/2/4
f 227/2/4 228/2/4 229/2/4
f 228/2/4 226/2/4 230/2/4
f 229/2/4 228/2/4 230/2/4
f 233/2/5 232/2/5 231/2/5
f 234/2/5 232/2/5 233/2/5
f 237/2/5 236/2/5 235/2/5
f 238/2/5 236/2/5 237/2/5
f 239/2/5 237/2/5 235/2/5
f 240/2/5 237/2/5 239/2/5
f 241/1/6 242/1/6 291/1/6
f 242/2/6 243/2/6 292/2/6
f 291/1/6 242/1/6 292/1/6
f 243/1/6 244/1/6 293/1/6
f 292/2/6 243/2/6 293/2/6
f 244/2/6 245/2/6 294/2/6
f 293/1/6 244/1/6 294/1/6
f 245/1/6 246/1/6 295/1/6
f 294/2/6 245/2/6 295/2/6
f 246/2/6 247/2/6 296/2/6
f 295/1/6 246/1/6 296/1/6
f 247/1/6 248/1/6 297/1/6
f 296/2/6 247/2/6 297/2/6
f 248/2/6 249/2/6 298/2/6
f 297/1/6 248/1/6 298/1/6
f 249/1/6 250/1/6 299/1/6
f 298/2/6 249/2/6 299/2/6
f 250/2/6 251/2/6 300/2/6
f 299/1/6 250/1/6 300/1/6
f 251/1/6 252/1/6 301/1/6
f 300/2/6 251/2/6 301/2/6
f 252/2/6 253/2/6 302/2/6
f 301/1/6 252/1/6 302/1/6
f 253/1/6 254/1/6 303/1/6
f 302/2/6 253/2/6 303/2/6
f 254/2/6 255/2/6 304/2/6
f 303/1/6 254/1/6 304/1/6
f 255/1/6 256/1/6 305/1/6
f 304/2/6 255/2/6 305/2/6
f 256/2/6 257/2/6 306/2/6
f 305/1/6 256/1/6 306/1/6
f 257/1/6 258/1/6 307/1/6
f 306/2/6 257/2/6 307/2/6
f 258/2/6 259/2/6 308/2/6
f 307/1/6 258/1/6 308/1/6
f 259/1/6 260/1/6 309/1/6
f 308/2/6 259/2/6 309/2/6
f 260/2/6 261/2/6 310/2/6
f 309/1/6 260/1/6 310/1/6
f 261/1/6 262/1/6 311/1/6
f 310/2/6 261/2/6 311/2/6
f 262/2/6 263/2/6 312/2/6
f 311/1/6 262/1/6 312/1/6
f 263/1/6 264/1/6 313/1/6
f 312/2/6 263/2/6 313/2/6
f 264/2/6 265/2/6 314/2/6
f 313/1/6 264/1/6 314/1/6
f 265/1/6 266/1/6 315/1/6
f 314/2/6 265/2/6 315/2/6
f 266/2/6 267/2/6 316/2/6
f 315/1/6 266/1/6 316/1/6
f 267/1/6 268/1/6 317/1/6
f 316/2/6 267/2/6 317/2/6
f 268/2/6 269/2/6 318/2/6
f 317/1/6 268/1/6 318/1/6
f 269/1/6 270/1/6 319/1/6
f 318/2/6 269/2/6 319/2/6
f 270/2/6 271/2/6 320/2/6
f 319/1/6 270/1/6 320/1/6
f 271/1/6 272/1/6 321/1/6
f 320/2/6 271/2/6 321/2/6
f 272/2/6 273/2/6 322/2/6
f 321/1/6 272/1/6 322/1/6
f 273/1/6 274/1/6 323/1/6
f 322/2/6 273/2/6 323/2/6
f 274/2/6 275/2/6 324/2/6
f 323/1/6 274/1/6 324/1/6
f 275/1/6 276/1/6 325/1/6
f 324/2/6 275/2/6 325/2/6
f 276/2/6 277/2/6 326/2/6
f 325/1/6 276/1/6 326/1/6
f 277/1/6 278/1/6 327/1/6
f 326/2/6 277/2/6 327/2/6
f 278/2/6 279/2/6 328/2/6
f 327/1/6 278/1/6 328/1/6
f 279/1/6 280/1/6 329/1/6
f 328/2/6 279/2/6 329/2/6
f 280/2/6 281/2/6 330/2/6
f 329/1/6 280/1/6 330/1/6
f 281/1/6 282/1/6 331/1/6
f 330/2/6 281/2/6 331/2/6
f 282/2/6 283/2/6 332/2/6
f 331/1/6 282/1/6 332/1/6
f 283/1/6 284/1/6 333/1/6
f 332/2/6 283/2/6 333/2/6
f 284/2/6 285/2/6 334/2/6
f 333/1/6 284/1/6 334/1/6
f 285/1/6 286/1/6 335/1/6
f 334/2/6 285/2/6 335/2/6
f 286/2/6 287/2/6 336/2/6
f 335/1/6 286/1/6 336/1/6
f 287/1/6 288/1/6 337/1/6
f 336/2/6 287/2/6 337/2/6
f 288/2/6 289/2/6 338/2/6
f 337/1/6 288/1/6 338/1/6
f 289/1/6 290/1/6 339/1/6
f 338/2/6 289/2/6 339/2/6
f 339/1/6 290/1/6 340/1/6
f 337/2/6 338/2/6 341/2/6
f 291/2/6 292/2/6 341/2/6
f 339/2/6 340/2/6 341/2/6
f 338/2/6 339/2/6 341/2/6
f 336/2/6 337/2/6 341/2/6
f 335/2/6 336/2/6 341/2/6
f 334/2/6 335/2/6 341/2/6
f 333/2/6 334/2/6 341/2/6
f 332/2/6 333/2/6 341/2/6
f 331/2/6 332/2/6 341/2/6
f 330/2/6 331/2/6 341/2/6
f 329/2/6 330/2/6 341/2/6
f 328/2/6 329/2/6 341/2/6
f 327/2/6 328/2/6 341/2/6
f 326/2/6 327/2/6 341/2/6
f 325/2/6 326/2/6 341/2/6
f 324/2/6 325/2/6 341/2/6
f 323/2/6 324/2/6 341/2/6
f 322/2/6 323/2/6 341/2/6
f 321/2/6 322/2/6 341/2/6
f 320/2/6 321/2/6 341/2/6
f 319/2/6 320/2/6 341/2/6
f 318/2/6 319/2/6 341/2/6
f 317/2/6 318/2/6 341/2/6
f 316/2/6 317/2/6 341/2/6
f 315/2/6 316/2/6 341/2/6
f 314/2/6 315/2/6 341/2/6
f 313/2/6 314/2/6 341/2/6
f 312/2/6 313/2/6 341/2/6
f 311/2/6 312/2/6 341/2/6
f 310/2/6 311/2/6 341/2/6
f 309/2/6 310/2/6 341/2/6
f 308/2/6 309/2/6 341/2/6
f 307/2/6 308/2/6 341/2/6
f 306/2/6 307/2/6 341/2/6
f 305/2/6 306/2/6 341/2/6
f 304/2/6 305/2/6 341/2/6
f 303/2/6 304/2/6 341/2/6
f 302/2/6 303/2/6 341/2/6
f 301/2/6 302/2/6 341/2/6
f 300/2/6 301/2/6 341/2/6
f 299/2/6 300/2/6 341/2/6
f 298/2/6 299/2/6 341/2/6
f 297/2/6 298/2/6 341/2/6
f 296/2/6 297/2/6 341/2/6
f 295/2/6 296/2/6 341/2/6
f 294/2/6 295/2/6 341/2/6
f 293/2/6 294/2/6 341/2/6
f 292/2/6 293/2/6 341/2/6
f 341/2/6 340/2/6 342/2/6
f 341/1/6 342/1/6 343/1/6
f 342/2/6 340/2/6 344/2/6
f 343/1/6 342/1/6 344/1/6
f 343/2/6 344/2/6 345/2/6
f 344/2/6 340/2/6 346/2/6
f 345/2/6 344/2/6 346/2/6
f 345/1/6 346/1/6 347/1/6
f 346/2/6 340/2/6 348/2/6
f 347/1/6 346/1/6 348/1/6
f 347/2/6 348/2/6 349/2/6
f 348/2/6 340/2/6 350/2/6
f 349/2/6 348/2/6 350/2/6
f 349/1/6 350/1/6 351/1/6
f 350/2/6 340/2/6 352/2/6
f 351/1/6 350/1/6 352/1/6
f 351/2/6 352/2/6 353/2/6
f 352/2/6 340/2/6 354/2/6
f 353/2/6 352/2/6 354/2/6
f 353/1/6 354/1/6 355/1/6
f 354/2/6 340/2/6 356/2/6
f 355/1/6 354/1/6 356/1/6
f 355/2/6 356/2/6 357/2/6
f 356/2/6 340/2/6 358/2/6
f 357/2/6 356/2/6 358/2/6
f 357/1/6 358/1/6 359/1/6
f 358/2/6 340/2/6 360/2/6
f 359/1/6 358/1/6 360/1/6
f 359/2/6 360/2/6 361/2/6
f 360/2/6 340/2/6 362/2/6
f 361/2/6 360/2/6 362/2/6
f 361/1/6 362/1/6 363/1/6
f 362/2/6 340/2/6 364/2/6
f 363/1/6 362/1/6 364/1/6
f 363/2/6 364/2/6 365/2/6
f 364/2/6 340/2/6 366/2/6
f 365/2/6 364/2/6 366/2/6
f 365/1/6 366/1/6 367/1/6
f 366/2/6 340/2/6 368/2/6
f 367/1/6 366/1/6 368/1/6
f 367/2/6 368/2/6 369/2/6
f 368/2/6 340/2/6 370/2/6
f 369/2/6 368/2/6 370/2/6
f 369/1/6 370/1/6 371/1/6
f 370/2/6 340/2/6 372/2/6
f 371/1/6 370/1/6 372/1/6
f 371/2/6 372/2/6 373/2/6
f 372/2/6 340/2/6 374/2/6
f 373/2/6 372/2/6 374/2/6
f 373/1/6 374/1/6 375/1/6
f 374/2/6 340/2/6 376/2/6
f 375/1/6 374/1/6 376/1/6
f 375/2/6 376/2/6 377/2/6
f 376/2/6 340/2/6 378/2/6
f 377/2/6 376/2/6 378/2/6
f 377/1/6 378/1/6 379/1/6
f 378/2/6 340/2/6 380/2/6
f 379/1/6 378/1/6 380/1/6
f 379/2/6 380/2/6 381/2/6
f 380/2/6 340/2/6 382/2/6
f 381/2/6 380/2/6 382/2/6
f 381/1/6 382/1/6 383/1/6
f 382/2/6 340/2/6 384/2/6
f 383/1/6 382/1/6 384/1/6
f 383/2/6 384/2/6 385/2/6
f 384/2/6 340/2/6 386/2/6
f 385/2/6 384/2/6 386/2/6
f 385/1/6 386/1/6 387/1/6
f 386/2/6 340/2/6 388/2/6
f 387/1/6 386/1/6 388/1/6
f 387/2/6 388/2/6 389/2/6
f 388/2/6 340/2/6 390/2/6
f 389/2/6 388/2/6 390/2/6
f 389/1/6 390/1/6 391/1/6
f 390/2/6 340/2/6 392/2/6
f 391/1/6 390/1/6 392/1/6
f 391/2/6 392/2/6 393/2/6
f 392/2/6 340/2/6 394/2/6
f 393/2/6 392/2/6 394/2/6
f 393/1/6 394/1/6 395/1/6
f 394/2/6 340/2/6 396/2/6
f 395/1/6 394/1/6 396/1/6
f 395/2/6 396/2/6 397/2/6
f 396/2/6 340/2/6 398/2/6
f 397/2/6 396/2/6 398/2/6
f 397/1/6 398/1/6 399/1/6
f 398/2/6 340/2/6 400/2/6
f 399/1/6 398/1/6 400/1/6
f 399/2/6 400/2/6 401/2/6
f 400/2/6 340/2/6 402/2/6
f 401/2/6 400/2/6 402/2/6
f 401/1/6 402/1/6 403/1/6
f 402/2/6 340/2/6 404/2/6
f 403/1/6 402/1/6 404/1/6
f 403/2/6 404/2/6 405/2/6
f 404/2/6 340/2/6 406/2/6
f 405/2/6 404/2/6 406/2/6
f 405/1/6 406/1/6 407/1/6
f 406/2/6 340/2/6 408/2/6
f 407/1/6 406/1/6 408/1/6
f 407/2/6 408/2/6 409/2/6
f 408/2/6 340/2/6 410/2/6
f 409/2/6 408/2/6 410/2/6
f 409/1/6 410/1/6 411/1/6
f 410/2/6 340/2/6 412/2/6
f 411/1/6 410/1/6 412/1/6
f 411/2/6 412/2/6 413/2/6
f 412/2/6 340/2/6 414/2/6
f 413/2/6 412/2/6 414/2/6
f 413/1/6 414/1/6 415/1/6
f 414/2/6 340/2/6 416/2/6
f 415/1/6 414/1/6 416/1/6
f 415/2/6 416/2/6 417/2/6
f 416/2/6 340/2/6 418/2/6
f 417/2/6 416/2/6 418/2/6
f 417/1/6 418/1/6 419/1/6
f 418/2/6 340/2/6 420/2/6
f 419/1/6 418/1/6 420/1/6
f 419/2/6 420/2/6 421/2/6
f 420/2/6 340/2/6 422/2/6
f 421/2/6 420/2/6 422/2/6
f 421/1/6 422/1/6 423/1/6
f 422/2/6 340/2/6 424/2/6
f 423/1/6 422/1/6 424/1/6
f 423/2/6 424/2/6 425/2/6
f 424/2/6 340/2/6 426/2/6
f 425/2/6 424/2/6 426/2/6
f 425/1/6 426/1/6 427/1/6
f 426/2/6 340/2/6 428/2/6
f 427/1/6 426/1/6 428/1/6
f 427/2/6 428/2/6 429/2/6
f 428/2/6 340/2/6 430/2/6
f 429/2/6 428/2/6 430/2/6
f 429/1/6 430/1/6 431/1/6
f 430/2/6 340/2/6 432/2/6
f 431/1/6 430/1/6 432/1/6
f 431/2/6 432/2/6 433/2/6
f 432/2/6 340/2/6 434/2/6
f 433/2/6 432/2/6 434/2/6
f 433/1/6 434/1/6 435/1/6
f 434/2/6 340/2/6 436/2/6
f 435/1/6 434/1/6 436/1/6
f 436/2/6 340/2/6 437/2/6
